# Blender v3.0.1 OBJ File: 'cheese.blend'
# www.blender.org
mtllib cheese.mtl
o Cube
v 2.181779 1.000000 0.000000
v 2.181779 -1.000000 0.000000
v -2.181779 1.000000 -1.000000
v -2.181779 -1.000000 -1.000000
v -2.181779 1.000000 1.000000
v -2.181779 -1.000000 1.000000
vt 0.625000 0.750000
vt 0.875000 0.500000
vt 0.875000 0.750000
vt 0.375000 0.750000
vt 0.625000 1.000000
vt 0.375000 1.000000
vt 0.375000 0.000000
vt 0.625000 0.000000
vt 0.625000 0.250000
vt 0.375000 0.250000
vt 0.125000 0.500000
vt 0.125000 0.750000
vn 0.0000 1.0000 0.0000
vn 0.2234 0.0000 0.9747
vn -1.0000 0.0000 0.0000
vn 0.0000 -1.0000 0.0000
vn 0.2234 0.0000 -0.9747
usemtl Material
s off
f 1/1/1 3/2/1 5/3/1
f 2/4/2 1/1/2 5/5/2 6/6/2
f 6/7/3 5/8/3 3/9/3 4/10/3
f 4/11/4 2/4/4 6/12/4
f 4/10/5 3/9/5 1/1/5 2/4/5
