# Blender v3.0.0 OBJ File: 'cross.blend'
# www.blender.org
mtllib cross_t.mtl
o Cross_Cube.002
v -3.402730 2.297491 1.000000
v -3.402730 4.297491 1.000000
v 3.402730 2.297491 1.000000
v 3.402730 4.297491 1.000000
v -3.402730 2.297491 -1.000000
v -3.402730 4.297491 -1.000000
v 3.402730 2.297491 -1.000000
v 3.402730 4.297491 -1.000000
v 0.990193 4.297491 -1.000000
v 1.001076 4.249324 1.000000
v -0.999894 4.299402 -1.000000
v -0.994536 4.249324 1.000000
v 1.002153 2.297491 1.000000
v 1.000000 2.297845 -1.000000
v -0.999947 2.308541 -1.000000
v -0.989071 2.297491 1.000000
v 1.000000 -6.201157 1.000000
v 1.000000 6.201157 1.000000
v -1.000000 -6.201157 1.000000
v -1.000000 6.201157 1.000000
v 1.000000 -6.201157 -1.000000
v 1.000000 6.201157 -1.000000
v -1.000000 -6.201157 -1.000000
v -1.000000 6.201157 -1.000000
vt 0.375000 0.500000
vt 0.125000 0.500000
vt 0.125000 0.588186
vt 0.375000 0.589329
vt 0.375000 0.660873
vt 0.375000 0.750000
vt 0.375000 0.500000
vt 0.125000 0.661334
vt 0.125000 0.500000
vt 0.625000 0.750000
vt 0.625000 0.500000
vt 0.875000 0.500000
vt 0.875000 0.750000
vt 0.625000 0.750000
vt 0.375000 0.750000
vt 0.375000 1.000000
vt 0.625000 1.000000
vt 0.125000 0.750000
vt 0.625000 0.661727
vt 0.875000 0.750000
vt 0.875000 0.662709
vt 0.875000 0.589046
vt 0.875000 0.500000
vt 0.625000 0.500000
vt 0.625000 0.588625
vt 0.625000 0.250000
vt 0.375000 0.250000
vt 0.125000 0.750000
vn -0.0001 -1.0000 -0.0001
vn -0.0000 0.0000 -1.0000
vn -1.0000 0.0006 0.0027
vn 0.0000 1.0000 0.0000
vn -1.0000 0.0000 0.0000
vn 0.0000 -1.0000 0.0000
vn 1.0000 -0.0001 -0.0005
vn 0.0096 0.9999 0.0125
vn 0.0000 -0.0000 1.0000
vn -0.0100 0.9999 0.0121
vn 1.0000 0.0000 0.0000
vn 0.0023 -1.0000 -0.0028
vn 1.0000 -0.0023 -0.0027
vn -1.0000 -0.0014 0.0013
usemtl None
s off
f 7/1/1 3/2/1 13/3/1 14/4/1
f 15/5/2 14/4/2 21/6/2 23/7/2
f 16/8/3 15/5/3 23/7/3 19/9/3
f 22/10/4 24/11/4 20/12/4 18/13/4
f 6/14/5 5/15/5 1/16/5 2/17/5
f 17/18/6 19/9/6 23/7/6 21/6/6
f 21/6/7 14/4/7 13/3/7 17/18/7
f 11/19/8 6/14/8 2/20/8 12/21/8
f 13/3/9 16/8/9 19/9/9 17/18/9
f 10/22/10 4/23/10 8/24/10 9/25/10
f 4/26/11 3/27/11 7/1/11 8/24/11
f 15/5/12 16/8/12 1/28/12 5/15/12
f 16/8/9 13/3/9 10/22/9 12/21/9
f 8/24/2 7/1/2 14/4/2 9/25/2
f 11/19/2 15/5/2 5/15/2 6/14/2
f 22/10/2 9/25/2 11/19/2 24/11/2
f 18/13/9 20/12/9 12/21/9 10/22/9
f 3/2/9 4/26/9 10/22/9 13/3/9
f 1/16/9 16/8/9 12/21/9 2/20/9
f 18/13/13 10/22/13 9/25/13 22/10/13
f 14/4/2 15/5/2 11/19/2 9/25/2
f 11/19/14 12/21/14 20/12/14 24/11/14
