# Blender v3.0.0 OBJ File: 'cube.blend'
# www.blender.org
mtllib cube_quads.mtl
o Cube
v 1.000000 -1.000000 -1.000000
v 1.000000 -1.000000 1.000000
v -1.000000 -1.000000 1.000000
v -1.000000 -1.000000 -1.000000
v 1.000000 1.000000 -0.999999
v 0.999999 1.000000 1.000001
v -1.000000 1.000000 1.000000
v -1.000000 1.000000 -1.000000
vt 0.376035 0.500000
vt 0.625992 0.500000
vt 0.625992 0.749957
vt 0.376035 0.749957
vt 0.376035 0.250043
vt 0.376035 0.000087
vt 0.625992 0.000087
vt 0.625992 0.250043
vt 0.875949 0.749957
vt 0.875949 0.999913
vt 0.625992 0.999913
vt 0.376035 0.999913
vt 0.126079 0.999913
vt 0.126079 0.749957
vn 0.0000 -1.0000 0.0000
vn 0.0000 1.0000 0.0000
vn 1.0000 0.0000 0.0000
vn -0.0000 -0.0000 1.0000
vn -1.0000 -0.0000 -0.0000
vn 0.0000 0.0000 -1.0000
usemtl Material
s off
f 1/1/1 2/2/1 3/3/1 4/4/1
f 5/5/2 8/6/2 7/7/2 6/8/2
f 1/1/3 5/5/3 6/8/3 2/2/3
f 2/9/4 6/10/4 7/11/4 3/3/4
f 3/3/5 7/11/5 8/12/5 4/4/5
f 5/13/6 1/14/6 4/4/6 8/12/6
